<svg width="1440" height="250" viewBox="0 0 1440 250" fill="none" xmlns="http://www.w3.org/2000/svg">
<path fill-rule="evenodd" clip-rule="evenodd" d="M1440 41.0362L1405.2 75.8635C1371.6 110.691 1303.2 180.345 1234.8 197.759C1165.2 215.173 1096.8 180.345 1028.4 162.932C960 145.518 891.6 145.518 823.2 139.714C754.8 133.909 685.2 122.3 616.8 87.4726C548.4 52.6453 480 -5.40019 411.6 0.404358C343.2 6.20891 274.8 75.8635 205.2 93.2771C136.8 110.691 68.3999 75.8635 34.7999 58.4499L0 41.0362V250H34.7999C68.3999 250 136.8 250 205.2 250C274.8 250 343.2 250 411.6 250C480 250 548.4 250 616.8 250C685.2 250 754.8 250 823.2 250C891.6 250 960 250 1028.4 250C1096.8 250 1165.2 250 1234.8 250C1303.2 250 1371.6 250 1405.2 250H1440V41.0362Z" fill="#1DC1B6"/>
</svg>
